HIERARCHY
ROOT Hips
{
  OFFSET 0.000 72.348 0.000
  CHANNELS 6 Xposition Yposition Zposition Zrotation Xrotation Yrotation
  JOINT LeftUpLeg
  {
    OFFSET 6.277 0.455 3.241
    CHANNELS 6 Xposition Yposition Zposition Zrotation Xrotation Yrotation
    JOINT LeftLeg
    {
      OFFSET 0.000 -34.088 0.000
      CHANNELS 6 Xposition Yposition Zposition Zrotation Xrotation Yrotation
      JOINT LeftFoot
      {
        OFFSET 0.000 -38.714 0.000
        CHANNELS 6 Xposition Yposition Zposition Zrotation Xrotation Yrotation
        End Site
        {
          OFFSET 0.000 0.000 10.144
        }
      }
    }
  }
  JOINT RightUpLeg
  {
    OFFSET -6.277 0.455 3.241
    CHANNELS 6 Xposition Yposition Zposition Zrotation Xrotation Yrotation
    JOINT RightLeg
    {
      OFFSET 0.000 -34.088 0.000
      CHANNELS 6 Xposition Yposition Zposition Zrotation Xrotation Yrotation
      JOINT RightFoot
      {
        OFFSET 0.000 -38.714 0.000
        CHANNELS 6 Xposition Yposition Zposition Zrotation Xrotation Yrotation
        End Site
        {
          OFFSET 0.000 0.000 10.144
        }
      }
    }
  }
  JOINT Spine
  {
    OFFSET 0.000 28.818 0.000
    CHANNELS 6 Xposition Yposition Zposition Zrotation Xrotation Yrotation
    JOINT Spine1
    {
      OFFSET 0.000 21.210 0.000
      CHANNELS 6 Xposition Yposition Zposition Zrotation Xrotation Yrotation
      JOINT LeftShoulder
      {
        OFFSET 1.326 -0.260 0.395
        CHANNELS 6 Xposition Yposition Zposition Zrotation Xrotation Yrotation
        JOINT LeftArm
        {
          OFFSET 13.174 0.000 0.000
          CHANNELS 6 Xposition Yposition Zposition Zrotation Xrotation Yrotation
          JOINT LeftForeArm
          {
            OFFSET 23.861 0.000 0.000
            CHANNELS 6 Xposition Yposition Zposition Zrotation Xrotation Yrotation
            JOINT LeftHand
            {
              OFFSET 22.344 0.000 0.000
              CHANNELS 6 Xposition Yposition Zposition Zrotation Xrotation Yrotation
              JOINT LeftHandThumb1
              {
                OFFSET 4.877 -1.044 3.608
                CHANNELS 6 Xposition Yposition Zposition Zrotation Xrotation Yrotation
                JOINT LeftHandThumb2
                {
                  OFFSET 2.665 0.000 0.000
                  CHANNELS 6 Xposition Yposition Zposition Zrotation Xrotation Yrotation
                  JOINT LeftHandThumb3
                  {
                    OFFSET 2.543 0.000 0.000
                    CHANNELS 6 Xposition Yposition Zposition Zrotation Xrotation Yrotation
                    End Site
                    {
                      OFFSET 2.667 0.000 0.000
                    }
                  }
                }
              }
              JOINT LeftHandIndex1
              {
                OFFSET 9.232 -0.301 2.144
                CHANNELS 6 Xposition Yposition Zposition Zrotation Xrotation Yrotation
                JOINT LeftHandIndex2
                {
                  OFFSET 4.225 0.000 -0.000
                  CHANNELS 6 Xposition Yposition Zposition Zrotation Xrotation Yrotation
                  JOINT LeftHandIndex3
                  {
                    OFFSET 2.654 -0.000 0.000
                    CHANNELS 6 Xposition Yposition Zposition Zrotation Xrotation Yrotation
                    End Site
                    {
                      OFFSET 1.958 0.000 -0.000
                    }
                  }
                }
              }
              JOINT LeftHandMiddle1
              {
                OFFSET 8.920 -0.000 0.000
                CHANNELS 6 Xposition Yposition Zposition Zrotation Xrotation Yrotation
                JOINT LeftHandMiddle2
                {
                  OFFSET 4.863 0.000 0.000
                  CHANNELS 6 Xposition Yposition Zposition Zrotation Xrotation Yrotation
                  JOINT LeftHandMiddle3
                  {
                    OFFSET 2.765 -0.000 0.000
                    CHANNELS 6 Xposition Yposition Zposition Zrotation Xrotation Yrotation
                    End Site
                    {
                      OFFSET 2.006 0.000 0.000
                    }
                  }
                }
              }
              JOINT LeftHandRing1
              {
                OFFSET 8.689 -0.126 -2.087
                CHANNELS 6 Xposition Yposition Zposition Zrotation Xrotation Yrotation
                JOINT LeftHandRing2
                {
                  OFFSET 4.538 0.000 0.000
                  CHANNELS 6 Xposition Yposition Zposition Zrotation Xrotation Yrotation
                  JOINT LeftHandRing3
                  {
                    OFFSET 2.305 0.000 0.000
                    CHANNELS 6 Xposition Yposition Zposition Zrotation Xrotation Yrotation
                    End Site
                    {
                      OFFSET 1.923 0.000 0.000
                    }
                  }
                }
              }
              JOINT LeftHandPinky1
              {
                OFFSET 8.391 -0.817 -3.758
                CHANNELS 6 Xposition Yposition Zposition Zrotation Xrotation Yrotation
                JOINT LeftHandPinky2
                {
                  OFFSET 3.044 0.000 0.000
                  CHANNELS 6 Xposition Yposition Zposition Zrotation Xrotation Yrotation
                  JOINT LeftHandPinky3
                  {
                    OFFSET 1.975 0.000 -0.000
                    CHANNELS 6 Xposition Yposition Zposition Zrotation Xrotation Yrotation
                    End Site
                    {
                      OFFSET 1.667 -0.000 0.000
                    }
                  }
                }
              }
            }
          }
        }
      }
      JOINT RightShoulder
      {
        OFFSET -1.326 -0.260 0.395
        CHANNELS 6 Xposition Yposition Zposition Zrotation Xrotation Yrotation
        JOINT RightArm
        {
          OFFSET -13.174 0.000 0.000
          CHANNELS 6 Xposition Yposition Zposition Zrotation Xrotation Yrotation
          JOINT RightForeArm
          {
            OFFSET -23.861 0.000 0.000
            CHANNELS 6 Xposition Yposition Zposition Zrotation Xrotation Yrotation
            JOINT RightHand
            {
              OFFSET -22.344 0.000 0.000
              CHANNELS 6 Xposition Yposition Zposition Zrotation Xrotation Yrotation
              JOINT RightHandThumb1
              {
                OFFSET -4.877 -1.044 3.608
                CHANNELS 6 Xposition Yposition Zposition Zrotation Xrotation Yrotation
                JOINT RightHandThumb2
                {
                  OFFSET -2.665 0.000 -0.000
                  CHANNELS 6 Xposition Yposition Zposition Zrotation Xrotation Yrotation
                  JOINT RightHandThumb3
                  {
                    OFFSET -2.543 0.000 -0.000
                    CHANNELS 6 Xposition Yposition Zposition Zrotation Xrotation Yrotation
                    End Site
                    {
                      OFFSET -2.667 0.000 0.000
                    }
                  }
                }
              }
              JOINT RightHandIndex1
              {
                OFFSET -9.232 -0.301 2.144
                CHANNELS 6 Xposition Yposition Zposition Zrotation Xrotation Yrotation
                JOINT RightHandIndex2
                {
                  OFFSET -4.225 0.000 -0.000
                  CHANNELS 6 Xposition Yposition Zposition Zrotation Xrotation Yrotation
                  JOINT RightHandIndex3
                  {
                    OFFSET -2.654 0.000 0.000
                    CHANNELS 6 Xposition Yposition Zposition Zrotation Xrotation Yrotation
                    End Site
                    {
                      OFFSET -1.958 -0.000 -0.000
                    }
                  }
                }
              }
              JOINT RightHandMiddle1
              {
                OFFSET -8.920 0.000 -0.000
                CHANNELS 6 Xposition Yposition Zposition Zrotation Xrotation Yrotation
                JOINT RightHandMiddle2
                {
                  OFFSET -4.863 0.000 0.000
                  CHANNELS 6 Xposition Yposition Zposition Zrotation Xrotation Yrotation
                  JOINT RightHandMiddle3
                  {
                    OFFSET -2.765 0.000 0.000
                    CHANNELS 6 Xposition Yposition Zposition Zrotation Xrotation Yrotation
                    End Site
                    {
                      OFFSET -2.006 -0.000 -0.000
                    }
                  }
                }
              }
              JOINT RightHandRing1
              {
                OFFSET -8.689 -0.126 -2.087
                CHANNELS 6 Xposition Yposition Zposition Zrotation Xrotation Yrotation
                JOINT RightHandRing2
                {
                  OFFSET -4.538 0.000 0.000
                  CHANNELS 6 Xposition Yposition Zposition Zrotation Xrotation Yrotation
                  JOINT RightHandRing3
                  {
                    OFFSET -2.305 0.000 0.000
                    CHANNELS 6 Xposition Yposition Zposition Zrotation Xrotation Yrotation
                    End Site
                    {
                      OFFSET -1.923 -0.000 0.000
                    }
                  }
                }
              }
              JOINT RightHandPinky1
              {
                OFFSET -8.391 -0.817 -3.758
                CHANNELS 6 Xposition Yposition Zposition Zrotation Xrotation Yrotation
                JOINT RightHandPinky2
                {
                  OFFSET -3.044 0.000 0.000
                  CHANNELS 6 Xposition Yposition Zposition Zrotation Xrotation Yrotation
                  JOINT RightHandPinky3
                  {
                    OFFSET -1.975 0.000 -0.000
                    CHANNELS 6 Xposition Yposition Zposition Zrotation Xrotation Yrotation
                    End Site
                    {
                      OFFSET -1.667 0.000 -0.000
                    }
                  }
                }
              }
            }
          }
        }
      }
      JOINT Neck
      {
        OFFSET 0.000 0.693 0.000
        CHANNELS 6 Xposition Yposition Zposition Zrotation Xrotation Yrotation
        JOINT Head
        {
          OFFSET 0.000 6.270 0.000
          CHANNELS 6 Xposition Yposition Zposition Zrotation Xrotation Yrotation
          End Site
          {
            OFFSET 0.000 13.330 0.000
          }
        }
      }
    }
  }
}
MOTION
Frames:	4
Frame Time:	0.033333
-118.10992 79.89970 -294.91742 -0.98283 7.89772 38.99541 3.13220 0.17800 3.24220 -5.39662 -12.42340 16.72689 -0.09105 -34.26361 -0.10072 -2.59285 16.33776 -17.94774 -0.01035 -36.09364 -0.11454 4.13504 16.58373 -4.57135 -5.05202 0.88442 3.27902 -28.14701 -21.58267 1.25128 0.14474 -30.75910 -0.27428 37.15629 21.12685 -6.10616 0.03125 -38.78253 -0.18344 3.58042 14.26308 -8.36837 -0.04165 30.83227 0.01235 0.61200 1.52610 11.84474 -0.00605 22.56507 0.01209 1.23607 2.35466 12.59795 1.58828 0.12653 0.34303 4.25913 -0.83160 -12.04238 14.66156 0.05784 0.01466 -37.21035 -6.87069 4.04686 27.26135 -0.08180 0.12187 18.06363 -13.78072 -8.25164 21.15437 -0.07641 -0.01342 -14.27886 7.82617 -13.08001 4.87700 -1.04401 3.60799 -24.67346 4.20320 -9.07676 2.66500 0.00002 0.00002 0.00000 -0.00000 9.99612 2.54301 0.00000 0.00005 -0.00000 -0.00000 15.01995 9.23199 -0.30105 2.14403 -20.02660 0.00000 -0.00000 4.22499 0.00002 -0.00002 -25.02881 -0.00000 -0.00000 2.65401 -0.00002 0.00002 -29.92319 2.49959 -4.32943 8.92000 -0.00007 0.00002 -20.02660 0.00000 -0.00000 4.86299 0.00002 0.00000 -25.02881 -0.00000 -0.00000 2.76498 -0.00002 0.00002 -29.92319 2.49959 -4.32943 8.68897 -0.12603 -2.08700 -20.02660 0.00000 -0.00000 4.53798 0.00000 0.00000 -25.02881 -0.00000 -0.00000 2.30500 0.00000 0.00002 -29.92319 2.49959 -4.32943 8.39100 -0.81704 -3.75800 -20.02660 0.00000 -0.00000 3.04399 0.00002 0.00005 -25.02881 -0.00000 -0.00000 1.97499 0.00000 -0.00002 -29.92319 2.49959 -4.32943 -1.45654 -0.47096 0.35163 16.05361 3.67625 12.51581 -13.99453 -0.03842 0.03905 -4.76147 -6.61909 67.40170 -25.57105 0.08870 0.66764 -3.31164 8.66273 31.61606 -25.68417 0.58463 -0.42201 -9.49786 7.14959 10.58841 -4.87700 -1.04399 3.60799 40.90344 11.75310 -3.90870 -2.66498 0.00000 -0.00002 0.00000 0.00000 -5.00177 -2.54300 0.00000 -0.00002 0.00000 0.00000 -59.99810 -9.23200 -0.30100 2.14398 -1.99860 -0.00000 -0.00000 -4.22500 0.00007 -0.00002 -1.99829 0.00000 0.00000 -2.65400 0.00000 0.00000 -1.99797 -0.00052 0.00176 -8.92000 0.00000 -0.00002 79.99831 -0.00000 -0.00000 -4.86300 0.00002 0.00002 89.99817 0.00000 0.00000 -2.76501 0.00000 0.00000 69.99831 0.00166 0.00250 -8.68901 -0.12598 -2.08702 79.99831 -0.00000 -0.00000 -4.53799 0.00002 0.00002 89.99817 0.00000 0.00000 -2.30501 0.00000 0.00000 69.99831 0.00166 0.00250 -8.39100 -0.81701 -3.75800 -1.99860 -0.00000 -0.00000 -3.04399 0.00002 0.00000 -1.99829 0.00000 0.00000 -1.97500 0.00002 -0.00002 -1.99797 -0.00052 0.00176 0.00069 0.74524 -0.00207 -0.00004 -0.00007 -0.00590 0.01964 6.70900 -0.02923 -6.72511 -7.50943 -67.19921 
-118.56404 78.77264 -295.16660 -1.61546 8.27568 37.68074 3.44177 0.17400 3.27762 -3.64743 -15.31795 17.64235 -0.11484 -32.81841 -0.21822 -4.02747 20.83789 -16.27941 -0.05606 -36.64507 -0.12363 2.79886 12.00842 -0.71614 -5.25857 0.89945 3.26952 -29.65197 -23.11085 -0.27233 0.11596 -30.44933 -0.24806 38.27405 22.80855 -4.63128 -0.03365 -39.73655 -0.17229 2.55609 11.86912 -6.71489 -0.04082 30.94926 0.01045 0.59905 1.57344 11.48444 -0.01706 22.67125 0.01208 1.18873 2.36369 12.02823 1.61930 -0.11107 0.36919 -2.73411 1.32078 -12.66055 14.99054 -0.30849 0.07660 -24.48226 -14.58629 5.39644 25.49271 -0.37924 -0.27497 13.10931 -10.88930 -8.63323 20.86736 -0.01750 -0.03527 -12.81568 4.96416 -9.88930 4.87700 -1.04401 3.60799 -24.67056 4.20434 -9.07721 2.66500 0.00002 0.00002 0.00000 -0.00000 9.99691 2.54301 0.00000 0.00005 -0.00000 -0.00000 15.01223 9.23199 -0.30105 2.14403 -20.01631 0.00000 -0.00000 4.22499 0.00002 -0.00002 -25.01767 -0.00000 -0.00000 2.65401 -0.00002 0.00002 -29.91633 2.49933 -4.33016 8.92000 -0.00007 0.00002 -20.01631 0.00000 -0.00000 4.86299 0.00002 0.00000 -25.01767 -0.00000 -0.00000 2.76498 -0.00002 0.00002 -29.91633 2.49933 -4.33016 8.68897 -0.12603 -2.08700 -20.01631 0.00000 -0.00000 4.53798 0.00000 0.00000 -25.01767 -0.00000 -0.00000 2.30500 0.00000 0.00002 -29.91633 2.49933 -4.33016 8.39100 -0.81704 -3.75800 -20.01631 0.00000 -0.00000 3.04399 0.00002 0.00005 -25.01767 -0.00000 -0.00000 1.97499 0.00000 -0.00002 -29.91633 2.49933 -4.33016 -1.44025 -0.49662 0.38200 17.24898 4.35803 13.82596 -14.04831 -0.04162 0.02218 -10.29421 -8.27061 64.02470 -24.82264 0.14215 0.67033 -2.80933 5.42240 27.53478 -25.44133 0.53505 -0.75541 -9.38755 3.92561 10.23192 -4.87700 -1.04399 3.60799 40.90370 11.75330 -3.90892 -2.66498 0.00000 -0.00002 0.00000 0.00000 -5.00153 -2.54300 0.00000 -0.00002 0.00000 0.00000 -59.99837 -9.23200 -0.30100 2.14398 -1.99880 -0.00000 -0.00000 -4.22500 0.00007 -0.00002 -1.99852 0.00000 0.00000 -2.65400 0.00000 0.00000 -1.99825 -0.00040 0.00153 -8.92000 0.00000 -0.00002 79.99855 -0.00000 -0.00000 -4.86300 0.00002 0.00002 89.99843 0.00000 0.00000 -2.76501 0.00000 0.00000 69.99854 0.00143 0.00233 -8.68901 -0.12598 -2.08702 79.99855 -0.00000 -0.00000 -4.53799 0.00002 0.00002 89.99843 0.00000 0.00000 -2.30501 0.00000 0.00000 69.99854 0.00143 0.00233 -8.39100 -0.81701 -3.75800 -1.99880 -0.00000 -0.00000 -3.04399 0.00002 0.00000 -1.99852 0.00000 0.00000 -1.97500 0.00002 -0.00002 -1.99825 -0.00040 0.00153 0.00071 0.74763 -0.00203 -0.00004 -0.00007 -0.00587 0.01958 6.76643 -0.03977 -6.68744 -8.70399 -64.73081 
-119.02174 77.59151 -295.35190 -2.07685 8.63115 35.60024 3.85794 0.13559 3.33184 -1.66577 -18.52094 19.23203 -0.13333 -31.69168 -0.29339 -5.43950 26.00784 -14.33066 -0.07633 -37.01131 -0.12460 2.05453 7.91331 0.82473 -5.45166 0.98619 3.26747 -30.79138 -24.95240 -1.11965 0.08764 -30.21735 -0.22472 39.53931 24.27989 -3.43812 -0.05124 -40.46564 -0.14165 1.99738 10.07219 -6.58652 -0.03944 31.04625 0.01019 0.51493 1.61732 10.92451 -0.02851 22.80864 0.01211 1.03976 2.34996 11.28383 1.60499 -0.33020 0.41724 -8.91298 3.53697 -13.98055 15.24033 -0.51060 0.16035 -11.52241 -19.89219 10.22742 24.17481 -0.44171 -0.38802 7.76670 -8.65971 -9.51911 22.08021 -0.04111 0.04911 -11.33892 1.13619 -6.38014 4.87700 -1.04401 3.60799 -24.66941 4.20527 -9.07762 2.66500 0.00002 0.00002 0.00000 -0.00000 9.99765 2.54301 0.00000 0.00005 -0.00000 -0.00000 15.00750 9.23199 -0.30105 2.14403 -20.01000 0.00000 -0.00000 4.22499 0.00002 -0.00002 -25.01084 -0.00000 -0.00000 2.65401 -0.00002 0.00002 -29.91199 2.49910 -4.33086 8.92000 -0.00007 0.00002 -20.01000 0.00000 -0.00000 4.86299 0.00002 0.00000 -25.01084 -0.00000 -0.00000 2.76498 -0.00002 0.00002 -29.91199 2.49910 -4.33086 8.68897 -0.12603 -2.08700 -20.01000 0.00000 -0.00000 4.53798 0.00000 0.00000 -25.01084 -0.00000 -0.00000 2.30500 0.00000 0.00002 -29.91199 2.49910 -4.33086 8.39100 -0.81704 -3.75800 -20.01000 0.00000 -0.00000 3.04399 0.00002 0.00005 -25.01084 -0.00000 -0.00000 1.97499 0.00000 -0.00002 -29.91199 2.49910 -4.33086 -1.40218 -0.50056 0.43219 17.83769 5.22356 16.01865 -13.92929 -0.03085 0.02439 -16.50145 -8.03966 60.70426 -25.24197 0.38296 0.46678 -0.66825 0.81654 17.50257 -22.89356 0.42121 -0.48132 -11.66769 0.05939 16.24198 -4.87700 -1.04399 3.60799 40.90397 11.75350 -3.90914 -2.66498 0.00000 -0.00002 0.00000 0.00000 -5.00129 -2.54300 0.00000 -0.00002 0.00000 0.00000 -59.99863 -9.23200 -0.30100 2.14398 -1.99899 -0.00000 -0.00000 -4.22500 0.00007 -0.00002 -1.99876 0.00000 0.00000 -2.65400 0.00000 0.00000 -1.99852 -0.00029 0.00129 -8.92000 0.00000 -0.00002 79.99878 -0.00000 -0.00000 -4.86300 0.00002 0.00002 89.99868 0.00000 0.00000 -2.76501 0.00000 0.00000 69.99877 0.00121 0.00212 -8.68901 -0.12598 -2.08702 79.99878 -0.00000 -0.00000 -4.53799 0.00002 0.00002 89.99868 0.00000 0.00000 -2.30501 0.00000 0.00000 69.99877 0.00121 0.00212 -8.39100 -0.81701 -3.75800 -1.99899 -0.00000 -0.00000 -3.04399 0.00002 0.00000 -1.99876 0.00000 0.00000 -1.97500 0.00002 -0.00002 -1.99852 -0.00029 0.00129 0.00072 0.75002 -0.00198 -0.00004 -0.00007 -0.00585 0.01948 6.83845 -0.04269 -7.20266 -9.36894 -61.60196 
-119.25063 76.36118 -295.57779 -2.39764 8.92087 34.97858 4.11949 0.22014 3.34794 -0.52569 -21.62745 18.88677 -0.14377 -30.93273 -0.31644 -6.52478 30.96442 -11.92982 -0.07661 -37.15422 -0.10522 1.66319 4.21893 2.64771 -5.64119 0.96943 3.28456 -33.34435 -25.60085 -4.19097 0.07184 -30.01370 -0.23670 41.29826 25.74861 -1.73183 -0.05606 -41.00035 -0.10981 1.49389 9.11969 -5.46461 -0.03218 31.04100 0.01042 0.47376 1.65332 10.90636 -0.02952 22.84989 0.01218 0.99822 2.30837 11.20633 1.57192 -0.40614 0.49044 -11.44175 4.67260 -16.60188 15.27944 -0.42938 0.13976 -6.69333 -20.38987 11.37229 23.01452 -0.41998 -0.36773 5.96670 -9.23483 -9.47804 21.72729 -0.02078 0.01179 -7.61849 -9.41797 -4.15895 4.87700 -1.04401 3.60799 -24.66848 4.20607 -9.07801 2.66500 0.00002 0.00002 0.00000 -0.00000 9.99830 2.54301 0.00000 0.00005 -0.00000 -0.00000 15.00455 9.23199 -0.30105 2.14403 -20.00606 0.00000 -0.00000 4.22499 0.00002 -0.00002 -25.00657 -0.00000 -0.00000 2.65401 -0.00002 0.00002 -29.91022 2.49888 -4.33150 8.92000 -0.00007 0.00002 -20.00606 0.00000 -0.00000 4.86299 0.00002 0.00000 -25.00657 -0.00000 -0.00000 2.76498 -0.00002 0.00002 -29.91022 2.49888 -4.33150 8.68897 -0.12603 -2.08700 -20.00606 0.00000 -0.00000 4.53798 0.00000 0.00000 -25.00657 -0.00000 -0.00000 2.30500 0.00000 0.00002 -29.91022 2.49888 -4.33150 8.39100 -0.81704 -3.75800 -20.00606 0.00000 -0.00000 3.04399 0.00002 0.00005 -25.00657 -0.00000 -0.00000 1.97499 0.00000 -0.00002 -29.91022 2.49888 -4.33150 -1.30262 -0.55100 0.50635 19.81570 7.76013 20.06439 -13.47871 -0.01892 -0.06020 -23.36427 -8.97756 54.23065 -26.34817 0.46378 0.23118 -0.98739 -3.31084 1.47831 -20.02448 0.04770 -0.36933 -10.41736 -3.10043 12.84382 -4.87700 -1.04399 3.60799 40.90424 11.75371 -3.90936 -2.66498 0.00000 -0.00002 0.00000 0.00000 -5.00105 -2.54300 0.00000 -0.00002 0.00000 0.00000 -59.99888 -9.23200 -0.30100 2.14398 -1.99918 -0.00000 -0.00000 -4.22500 0.00007 -0.00002 -1.99899 0.00000 0.00000 -2.65400 0.00000 0.00000 -1.99880 -0.00019 0.00105 -8.92000 0.00000 -0.00002 79.99900 -0.00000 -0.00000 -4.86300 0.00002 0.00002 89.99892 0.00000 0.00000 -2.76501 0.00000 0.00000 69.99900 0.00099 0.00189 -8.68901 -0.12598 -2.08702 79.99900 -0.00000 -0.00000 -4.53799 0.00002 0.00002 89.99892 0.00000 0.00000 -2.30501 0.00000 0.00000 69.99900 0.00099 0.00189 -8.39100 -0.81701 -3.75800 -1.99918 -0.00000 -0.00000 -3.04399 0.00002 0.00000 -1.99899 0.00000 0.00000 -1.97500 0.00002 -0.00002 -1.99880 -0.00019 0.00105 0.00074 0.75291 -0.00193 -0.00004 -0.00007 -0.00582 0.01935 6.88370 -0.04431 -7.34014 -9.77765 -61.00435 
